<?xml version="1.0" standalone="no"?>
<!DOCTYPE svg PUBLIC "-//W3C//DTD SVG 20010904//EN"
 "http://www.w3.org/TR/2001/REC-SVG-20010904/DTD/svg10.dtd">
<svg version="1.0" xmlns="http://www.w3.org/2000/svg"
 width="301.000000pt" height="301.000000pt" viewBox="0 0 301.000000 301.000000"
 preserveAspectRatio="xMidYMid meet">
<metadata>
Created by potrace 1.11, written by Peter Selinger 2001-2013
</metadata>
<g transform="translate(0.000000,301.000000) scale(0.100000,-0.100000)"
fill="#000000" stroke="none">
<path d="M800 2997 c-40 -20 -50 -53 -50 -165 0 -157 22 -182 161 -182 l69 0
0 -183 0 -184 -42 -19 c-24 -10 -74 -40 -113 -65 -250 -163 -435 -423 -510
-713 -76 -300 -21 -641 147 -914 72 -116 244 -291 360 -367 139 -89 277 -146
440 -181 116 -25 371 -25 488 0 250 54 447 161 626 340 191 191 300 405 341
671 18 117 13 291 -11 402 -78 362 -310 663 -638 829 l-88 44 0 170 0 170 75
0 c42 0 90 6 109 14 48 20 58 55 54 185 -3 99 -5 113 -26 133 l-23 23 -672 2
c-526 2 -677 0 -697 -10z m1300 -162 l0 -55 -180 0 c-99 0 -180 -3 -180 -7 0
-5 27 -28 60 -51 l60 -44 0 -227 0 -228 48 -18 c138 -52 251 -125 368 -237
335 -322 424 -811 224 -1224 -111 -229 -282 -399 -511 -508 -555 -266 -1213
-40 -1479 508 -112 230 -136 492 -69 737 26 98 116 278 179 361 105 139 283
280 427 340 l53 22 0 236 0 236 68 50 67 49 -182 3 -183 2 0 49 c0 26 3 51 7
54 3 4 280 7 615 7 l608 0 0 -55z"/>
<path d="M1443 2249 c-73 -21 -133 -119 -119 -194 9 -44 44 -94 85 -122 40
-27 126 -31 169 -9 60 31 94 88 94 156 0 76 -49 145 -121 169 -39 13 -63 13
-108 0z"/>
<path d="M1203 1819 c-59 -12 -93 -59 -93 -130 0 -33 6 -47 33 -74 19 -19 46
-37 60 -41 77 -19 157 41 157 117 0 42 -18 87 -44 108 -22 19 -76 28 -113 20z"/>
<path d="M1769 1460 c-64 -19 -109 -75 -109 -134 0 -23 4 -26 38 -26 21 0 87
5 146 11 59 6 110 8 112 6 13 -12 -12 -83 -38 -113 -58 -66 -158 -66 -216 0
-17 19 -33 48 -37 65 -5 22 -12 31 -26 31 -24 0 -1080 -98 -1138 -106 l-44 -6
6 -81 c11 -152 83 -343 182 -482 61 -86 208 -223 295 -276 206 -124 362 -164
604 -156 169 5 252 23 387 81 398 173 657 594 623 1012 -3 45 -9 86 -13 91 -5
8 -159 -3 -533 -41 -51 -5 -58 -3 -58 12 0 33 -40 83 -83 102 -45 21 -58 22
-98 10z m-317 -340 c156 -44 187 -257 50 -350 -75 -52 -194 -33 -255 40 -52
61 -59 132 -21 208 43 87 133 127 226 102z m446 -427 c60 -37 65 -127 11 -179
-25 -24 -39 -29 -79 -29 -101 0 -152 108 -89 189 35 44 104 53 157 19z"/>
</g>
</svg>
