<?xml version="1.0" encoding="UTF-8" standalone="no"?>
<!-- Created with Inkscape (http://www.inkscape.org/) -->

<svg
   xmlns:dc="http://purl.org/dc/elements/1.1/"
   xmlns:cc="http://creativecommons.org/ns#"
   xmlns:rdf="http://www.w3.org/1999/02/22-rdf-syntax-ns#"
   xmlns:svg="http://www.w3.org/2000/svg"
   xmlns="http://www.w3.org/2000/svg"
   xmlns:xlink="http://www.w3.org/1999/xlink"
   xmlns:sodipodi="http://sodipodi.sourceforge.net/DTD/sodipodi-0.dtd"
   xmlns:inkscape="http://www.inkscape.org/namespaces/inkscape"
   width="744.09448819"
   height="1052.3622047"
   id="svg3828"
   version="1.1"
   inkscape:version="0.48.2 r9819"
   sodipodi:docname="New document 2">
  <defs
     id="defs3830" />
  <sodipodi:namedview
     id="base"
     pagecolor="#ffffff"
     bordercolor="#666666"
     borderopacity="1.0"
     inkscape:pageopacity="0.0"
     inkscape:pageshadow="2"
     inkscape:zoom="0.45706698"
     inkscape:cx="372.04724"
     inkscape:cy="526.18109"
     inkscape:document-units="px"
     inkscape:current-layer="layer1"
     showgrid="false"
     inkscape:window-width="1280"
     inkscape:window-height="699"
     inkscape:window-x="0"
     inkscape:window-y="0"
     inkscape:window-maximized="1" />
  <metadata
     id="metadata3833">
    <rdf:RDF>
      <cc:Work
         rdf:about="">
        <dc:format>image/svg+xml</dc:format>
        <dc:type
           rdf:resource="http://purl.org/dc/dcmitype/StillImage" />
        <dc:title></dc:title>
      </cc:Work>
    </rdf:RDF>
  </metadata>
  <g
     inkscape:label="Layer 1"
     inkscape:groupmode="layer"
     id="layer1">
    <path
       sodipodi:type="inkscape:offset"
       inkscape:radius="-10.939316"
       inkscape:original="M 86.25 529 L 86.25 561.5 L 130.75 561.5 C 130.64545 621.78117 130.95885 682.14594 130.59375 742.375 C 98.984883 822.32355 66.91435 902.18384 35.59375 982.1875 C 35.45506 994.0128 41.22806 1006.5794 51.0625 1013.4375 L 449.8125 1013.4375 C 459.13655 1006.1042 464.93698 993.1051 463.59375 981.375 C 433.60452 905.57271 403.26931 829.84205 373.5 754 L 373.5 561.5 L 418.03125 561.5 L 418.03125 529 L 86.25 529 z "
       xlink:href="#rect3836"
       style="fill:#000000;fill-opacity:0.98823529;fill-rule:nonzero;stroke:none"
       id="path4398"
       inkscape:href="#rect3836"
       d="m -423.53125,332.09375 0,10.625 33.5625,0 a 10.94041,10.94041 0 0 1 10.9375,10.96875 c -0.10446,60.23059 0.20935,120.59494 -0.15625,180.90625 a 10.94041,10.94041 0 0 1 -0.75,3.96875 C -411.25112,617.76428 -442.9943,696.8403 -474,776 c 0.37727,6.8324 3.70414,14.10716 8.53125,18.65625 l 390,0 c 4.649626,-5.02751 7.788523,-12.71878 7.4375,-18.9375 -29.740988,-75.15979 -59.82812,-150.28712 -89.375,-225.5625 a 10.94041,10.94041 0 0 1 -0.75,-4 l 0,-192.5 a 10.94041,10.94041 0 0 1 10.9375,-10.9375 l 33.59375,0 0,-10.625 -309.90625,0 z" />
    <path
       style="fill:#000000;fill-opacity:0.98823529;fill-rule:nonzero;stroke:none"
       d="m 86.245293,528.99629 0,32.5 44.499997,0 c -0.10455,60.28117 0.20885,120.64594 -0.15625,180.875 -31.608867,79.94855 -63.679397,159.80883 -94.999997,239.81249 -0.13869,11.8253 5.63431,24.39192 15.46875,31.25002 l 398.750007,0 c 9.32405,-7.3333 15.12448,-20.33242 13.78125,-32.06252 C 433.59982,905.56899 403.2646,829.83834 373.49529,753.99629 l 0,-192.5 44.53125,0 0,-32.5 -331.781247,0 z"
       id="rect3836"
       inkscape:connector-curvature="0" />
    <g
       id="g4484"
       transform="translate(0,-11.170851)">
      <path
         inkscape:connector-curvature="0"
         id="path4409"
         d="m 93.309517,355.99141 c -13.853822,34.98734 -27.870403,69.94091 -41.578492,104.95611 -0.06403,5.4593 2.60115,11.26083 7.141344,14.42696 l 184.087981,0 c 4.30457,-3.38551 6.98241,-9.38671 6.36229,-14.80206 -13.79333,-34.8647 -27.74012,-69.69841 -41.43422,-104.58101 l -14.25384,0 c -0.69593,12.39473 -10.53628,22.21751 -22.57819,22.21751 -8.88651,0 -16.57042,-5.35688 -20.26987,-13.14296 -0.20501,0.0116 -0.41245,0.0144 -0.62036,0.0144 -5.3852,0 -9.86043,-3.93792 -10.69038,-9.08899 l -1.78894,0 c 0.0429,0.427 0.0721,0.86013 0.0721,1.29843 0,7.09124 -5.74876,12.83999 -12.84,12.83999 -7.09124,0 -12.83999,-5.74875 -12.83999,-12.83999 0,-0.4383 0.0148,-0.87143 0.0577,-1.29843 l -3.98184,0 c 0.0131,0.14147 0.0144,0.28793 0.0144,0.43281 0,2.5497 -2.06693,4.61663 -4.61663,4.61663 -2.54969,0 -4.616623,-2.06693 -4.616623,-4.61663 0,-0.14492 0.01579,-0.29129 0.02885,-0.43281 l -5.655368,0 z m 103.167173,12.98426 c 4.78105,0 8.65618,3.87513 8.65618,8.65617 0,4.78105 -3.87513,8.65618 -8.65618,8.65618 -4.78104,0 -8.65617,-3.87513 -8.65617,-8.65618 0,-4.78104 3.87513,-8.65617 8.65617,-8.65617 z m -49.34019,12.83999 c 7.64907,0 13.84988,6.2008 13.84988,13.84988 0,7.64908 -6.20081,13.84988 -13.84988,13.84988 -7.64908,0 -13.84988,-6.2008 -13.84988,-13.84988 0,-7.64908 6.2008,-13.84988 13.84988,-13.84988 z m -33.48497,18.46651 c 2.54969,0 4.61663,2.06693 4.61663,4.61662 0,2.5497 -2.06694,4.61663 -4.61663,4.61663 -2.5497,0 -4.61663,-2.06693 -4.61663,-4.61663 0,-2.54969 2.06693,-4.61662 4.61663,-4.61662 z"
         style="fill:#000000;fill-opacity:0.98823529;fill-rule:nonzero;stroke:none" />
      <path
         inkscape:connector-curvature="0"
         id="path4403"
         d="m 73.964642,249.56827 0,1.15415 0,15.00404 0,1.15416 1.154157,0 19.389832,0 c -0.04233,27.38369 0.09214,54.80137 -0.07214,82.14709 -14.563398,36.83305 -29.337692,73.62741 -43.77139,110.49607 l -0.07214,0.20198 -0.0144,0.20198 c -0.06854,5.84444 2.737327,11.97025 7.646288,15.39356 l 0.288539,0.20198 0.360674,0 184.087978,0 0.40396,0 0.31739,-0.24526 c 4.64269,-3.65142 7.46891,-9.95659 6.7951,-15.8408 l -0.0144,-0.14427 -0.0577,-0.14427 C 236.58486,424.21282 222.60345,389.31167 208.88555,354.36569 l 0,-87.48507 19.40426,0 1.15416,0 0,-1.15416 0,-15.00404 0,-1.15415 -1.15416,0 -153.171011,0 -1.154157,0 z m 2.308314,2.30831 150.862694,0 0,12.69572 -19.40425,0 -1.15416,0 0,1.15416 0,88.87006 0,0.2164 0.0866,0.20198 c 13.72251,34.96028 27.69954,69.87802 41.52079,104.81185 0.49669,4.7972 -1.88629,10.2523 -5.65537,13.38822 l -183.251221,0 c -3.95456,-2.91465 -6.36834,-8.15098 -6.376715,-13.0564 14.431704,-36.86008 29.204166,-73.65108 43.77139,-110.49607 l 0.07214,-0.20198 0,-0.2164 c 0.168604,-27.81419 0.02387,-55.69343 0.07213,-83.51766 l 0.0144,-1.15416 -1.168584,0 -19.389831,0 0,-12.69572 z"
         style="font-size:medium;font-style:normal;font-variant:normal;font-weight:normal;font-stretch:normal;text-indent:0;text-align:start;text-decoration:none;line-height:normal;letter-spacing:normal;word-spacing:normal;text-transform:none;direction:ltr;block-progression:tb;writing-mode:lr-tb;text-anchor:start;baseline-shift:baseline;color:#000000;fill:#000000;fill-opacity:1;stroke:none;stroke-width:5;marker:none;visibility:visible;display:inline;overflow:visible;enable-background:accumulate;font-family:Sans;-inkscape-font-specification:Sans" />
    </g>
    <g
       id="g4478">
      <text
         sodipodi:linespacing="132.00001%"
         id="text4458"
         y="406.9425"
         x="273.48785"
         style="font-size:22px;font-style:normal;font-variant:normal;font-weight:normal;font-stretch:normal;line-height:132.00000525%;letter-spacing:10px;word-spacing:0px;fill:#000000;fill-opacity:1;stroke:none;font-family:Open Sans;-inkscape-font-specification:Open Sans"
         xml:space="preserve"><tspan
           id="tspan4466"
           style="font-size:56px;font-style:normal;font-variant:normal;font-weight:normal;font-stretch:normal;line-height:132.00000525%;font-family:Bebas;-inkscape-font-specification:Bebas"
           y="406.9425"
           x="273.48785"
           sodipodi:role="line">Laboratory</tspan></text>
      <text
         xml:space="preserve"
         style="font-size:22px;font-style:normal;font-variant:normal;font-weight:normal;font-stretch:normal;line-height:132.00000525%;letter-spacing:10px;word-spacing:0px;fill:#000000;fill-opacity:1;stroke:none;font-family:Open Sans;-inkscape-font-specification:Open Sans"
         x="260.35574"
         y="345.68234"
         id="text4468"
         sodipodi:linespacing="132.00001%"><tspan
           sodipodi:role="line"
           x="260.35574"
           y="345.68234"
           style="font-size:56px;font-style:normal;font-variant:normal;font-weight:normal;font-stretch:normal;line-height:132.00000525%;font-family:Bebas;-inkscape-font-specification:Bebas"
           id="tspan4472">Open Source </tspan></text>
    </g>
    <flowRoot
       xml:space="preserve"
       id="flowRoot4496"
       style="fill:black;stroke:none;stroke-opacity:1;stroke-width:1px;stroke-linejoin:miter;stroke-linecap:butt;fill-opacity:1;font-family:Open Sans;font-style:normal;font-weight:normal;font-size:22px;line-height:100%;letter-spacing:10px;word-spacing:0px;-inkscape-font-specification:Open Sans;font-stretch:normal;font-variant:normal"><flowRegion
         id="flowRegion4498"><rect
           id="rect4500"
           width="43.757263"
           height="63.448032"
           x="-286.61008"
           y="781.06714" /></flowRegion><flowPara
         id="flowPara4502"></flowPara></flowRoot>  </g>
</svg>
